# xmcd
#
# Track frame offsets: 
#        150
#        14597
#        30485
#        44527
#        59217
#        72787
#        85655
#        99715
#        113115
#        127047
#        139957
#        154125
#        168735
#        183832
#        197002
#        211712
#
# Disc length: 3011 seconds
#
# Revision: 2
# Processed by: cddbd v1.5.2PL0 Copyright (c) Steve Scherf et al.
# Submitted via: ExactAudioCopyFreeDBPlugin 1.0
#
DISCID=e70bc110
DTITLE=Son House, Charley Patton, Willie Brown, Louise Johnson - The L
DTITLE=egendary Delta Blues Session -Grafton, Wisconsin. (Wed) May 28,
DTITLE=1930
DYEAR=1930
DGENRE=Blues
TTITLE0=Louise Johnson - All Night Long Blues
TTITLE1=Louise Johnson - Long Ways From Home
TTITLE2=Son House - My Black Mama part I
TTITLE3=Son House - My Black Mama part II
TTITLE4=Son House - Preachin' the  Blues part I
TTITLE5=Son House - Preachin' the Blues part II
TTITLE6=Willie Brown - M&O Blues
TTITLE7=Willie Brown - Future Blues
TTITLE8=Louise Johnson - On the Wall
TTITLE9=Louise Johnson - By the Moon and Stars
TTITLE10=Son House - Dry Spell Blues part I
TTITLE11=Son House - Dry Spell Blues part II
TTITLE12=Charlie Patton - Dry Well Blues
TTITLE13=Charlie Patton - Some Summer Day part I
TTITLE14=Charlie Patton - Moon Going Down
TTITLE15=Charlie Patton - Bird Nest Bound
EXTD=
EXTT0=
EXTT1=
EXTT2=
EXTT3=
EXTT4=
EXTT5=
EXTT6=
EXTT7=
EXTT8=
EXTT9=
EXTT10=
EXTT11=
EXTT12=
EXTT13=
EXTT14=
EXTT15=
PLAYORDER=
